<?xml version="1.0" encoding="UTF-8"?>
<svg width="575px" height="59px" viewBox="0 0 575 59" version="1.1" xmlns="http://www.w3.org/2000/svg" xmlns:xlink="http://www.w3.org/1999/xlink">
    <!-- Generator: Sketch 48.2 (47327) - http://www.bohemiancoding.com/sketch -->
    <title>Group 7</title>
    <desc>Created with Sketch.</desc>
    <defs></defs>
    <g id="Page-1" stroke="none" stroke-width="1" fill="none" fill-rule="evenodd">
        <g id="Group-7" fill="#F5EC79">
            <path d="M9.42400331,16.769213 C9.42400331,20.823713 12.3310033,22.583213 17.0740033,23.577713 C20.9755033,24.419213 25.6420033,25.184213 30.3085033,26.102213 C38.7235033,27.785213 46.2205033,31.304213 46.2205033,41.325713 C46.2205033,51.882713 36.9640033,58.308713 23.9590033,58.308713 C9.42400331,58.308713 0.932503311,52.265213 0.550003311,38.801213 L8.12350331,38.801213 C8.42950331,48.134213 14.1670033,51.729713 23.9590033,51.729713 C32.5270033,51.729713 38.5705033,47.828213 38.5705033,41.325713 C38.5705033,36.429713 34.5160033,34.593713 29.0845033,33.522713 C24.1885033,32.528213 18.5275033,31.457213 13.2490033,30.462713 C6.97600331,29.238713 1.85050331,24.954713 1.85050331,16.769213 C1.85050331,6.51821301 11.4130033,0.93371301 23.1940033,0.93371301 C36.1990033,0.93371301 44.0020033,7.20671301 44.6905033,17.381213 L37.0405033,17.381213 C36.3520033,10.725713 31.3030033,7.43621301 23.1940033,7.43621301 C15.6205033,7.43621301 9.42400331,10.725713 9.42400331,16.769213 Z M53.1055033,29.544713 C53.1055033,12.332213 64.1215033,0.85721301 79.8805033,0.85721301 C95.6395033,0.85721301 106.655503,12.332213 106.655503,29.544713 C106.655503,46.757213 95.6395033,58.308713 79.8805033,58.308713 C64.1215033,58.308713 53.1055033,46.757213 53.1055033,29.544713 Z M61.0615033,29.544713 C61.0615033,43.161713 68.7880033,51.653213 79.8805033,51.653213 C90.9730033,51.653213 98.6995033,43.161713 98.6995033,29.544713 C98.6995033,15.927713 90.9730033,7.51271301 79.8805033,7.51271301 C68.7880033,7.51271301 61.0615033,15.927713 61.0615033,29.544713 Z M124.633003,2.08121301 L124.633003,50.352713 L150.643003,50.352713 L150.643003,57.161213 L116.983003,57.161213 L116.983003,2.08121301 L124.633003,2.08121301 Z M191.570503,40.637213 L167.473003,40.637213 L161.429503,57.161213 L153.320503,57.161213 L174.511003,2.08121301 L184.532503,2.08121301 L206.105503,57.161213 L197.843503,57.161213 L191.570503,40.637213 Z M188.969503,33.828713 L179.560003,8.66021301 L179.254003,8.66021301 L169.997503,33.828713 L188.969503,33.828713 Z M244.432003,30.768713 C248.792503,31.992713 251.776003,35.894213 252.158503,40.713713 L253.229503,51.041213 C253.459003,53.030213 253.612003,55.095713 254.224003,57.161213 L246.344503,57.161213 C245.656003,53.642213 245.350003,48.210713 244.738003,42.473213 C244.202503,37.424213 240.683503,33.752213 235.711003,33.752213 L221.405503,33.752213 L221.405503,57.161213 L213.755503,57.161213 L213.755503,2.08121301 L236.935003,2.08121301 C246.421003,2.08121301 253.535503,8.73671301 253.535503,17.916713 C253.535503,23.807213 249.863503,28.320713 244.432003,30.462713 L244.432003,30.768713 Z M221.405503,27.249713 L235.405003,27.249713 C241.984003,27.249713 245.732503,23.424713 245.732503,17.916713 C245.732503,12.408713 241.984003,8.58371301 235.405003,8.58371301 L221.405503,8.58371301 L221.405503,27.249713 Z" id="SOLAR" transform="translate(127.387003, 29.582963) rotate(-360.000000) translate(-127.387003, -29.582963) "></path>
            <path d="M326.562003,2.08121301 C336.507003,2.08121301 344.004003,8.81321301 344.004003,18.758213 C344.004003,28.703213 337.272003,35.358713 326.562003,35.358713 L311.874003,35.358713 L311.874003,57.161213 L304.224003,57.161213 L304.224003,2.08121301 L326.562003,2.08121301 Z M311.874003,28.856213 L325.185003,28.856213 C332.758503,28.856213 336.354003,25.184213 336.354003,18.758213 C336.354003,12.332213 331.993503,8.58371301 325.185003,8.58371301 L311.874003,8.58371301 L311.874003,28.856213 Z M349.741503,29.544713 C349.741503,12.332213 360.757503,0.85721301 376.516503,0.85721301 C392.275503,0.85721301 403.291503,12.332213 403.291503,29.544713 C403.291503,46.757213 392.275503,58.308713 376.516503,58.308713 C360.757503,58.308713 349.741503,46.757213 349.741503,29.544713 Z M357.697503,29.544713 C357.697503,43.161713 365.424003,51.653213 376.516503,51.653213 C387.609003,51.653213 395.335503,43.161713 395.335503,29.544713 C395.335503,15.927713 387.609003,7.51271301 376.516503,7.51271301 C365.424003,7.51271301 357.697503,15.927713 357.697503,29.544713 Z M407.881503,2.08121301 L415.684503,2.08121301 L427.312503,47.139713 L427.618503,47.139713 L438.634503,2.08121301 L447.738003,2.08121301 L458.448003,47.063213 L458.754003,47.063213 L470.535003,2.08121301 L478.338003,2.08121301 L463.420503,57.161213 L454.240503,57.161213 L443.301003,12.408713 L442.995003,12.408713 L432.132003,57.161213 L422.569503,57.161213 L407.881503,2.08121301 Z M521.943003,2.08121301 L521.943003,8.81321301 L494.020503,8.81321301 L494.020503,24.648713 L520.795503,24.648713 L520.795503,31.457213 L494.020503,31.457213 L494.020503,50.429213 L522.325503,50.429213 L522.325503,57.161213 L486.370503,57.161213 L486.370503,2.08121301 L521.943003,2.08121301 Z M564.477003,30.768713 C568.837503,31.992713 571.821003,35.894213 572.203503,40.713713 L573.274503,51.041213 C573.504003,53.030213 573.657003,55.095713 574.269003,57.161213 L566.389503,57.161213 C565.701003,53.642213 565.395003,48.210713 564.783003,42.473213 C564.247503,37.424213 560.728503,33.752213 555.756003,33.752213 L541.450503,33.752213 L541.450503,57.161213 L533.800503,57.161213 L533.800503,2.08121301 L556.980003,2.08121301 C566.466003,2.08121301 573.580503,8.73671301 573.580503,17.916713 C573.580503,23.807213 569.908503,28.320713 564.477003,30.462713 L564.477003,30.768713 Z M541.450503,27.249713 L555.450003,27.249713 C562.029003,27.249713 565.777503,23.424713 565.777503,17.916713 C565.777503,12.408713 562.029003,8.58371301 555.450003,8.58371301 L541.450503,8.58371301 L541.450503,27.249713 Z" id="POWER" transform="translate(439.246503, 29.582963) rotate(-540.000000) translate(-439.246503, -29.582963) "></path>
        </g>
    </g>
</svg>
