<?xml version="1.0" encoding="UTF-8"?>
<svg width="424px" height="31px" viewBox="0 0 424 31" version="1.1" xmlns="http://www.w3.org/2000/svg" xmlns:xlink="http://www.w3.org/1999/xlink">
    <!-- Generator: Sketch 48.2 (47327) - http://www.bohemiancoding.com/sketch -->
    <title>Group 5</title>
    <desc>Created with Sketch.</desc>
    <defs>
        <polygon id="path-1" points="0 0.9633 23.8757 0.9633 23.8757 30.9583 0 30.9583"></polygon>
        <polygon id="path-3" points="0.48 0.924 28.476 0.924 28.476 30.9581 0.48 30.9581"></polygon>
    </defs>
    <g id="Round-4" stroke="none" stroke-width="1" fill="none" fill-rule="evenodd">
        <g id="Group-5" transform="translate(0.000000, -1.000000)">
            <g id="Group-3" transform="translate(0.000000, 0.627048)">
                <mask id="mask-2" fill="white">
                    <use xlink:href="#path-1"></use>
                </mask>
                <g id="Clip-2"></g>
                <path d="M8.6387,12.8023 C10.6787,13.2413 13.1177,13.6423 15.5577,14.1213 C19.9567,15.0013 23.8757,16.8413 23.8757,22.0803 C23.8757,27.5993 19.0367,30.9583 12.2387,30.9583 C4.6387,30.9583 0.2007,27.7993 -0.0003,20.7603 L3.9597,20.7603 C4.1197,25.6403 7.1187,27.5193 12.2387,27.5193 C16.7177,27.5193 19.8767,25.4803 19.8767,22.0803 C19.8767,19.5213 17.7577,18.5613 14.9177,18.0003 C12.3577,17.4813 9.3987,16.9213 6.6387,16.4013 C3.3597,15.7613 0.6807,13.5223 0.6807,9.2423 C0.6807,3.8833 5.6797,0.9633 11.8377,0.9633 C18.6377,0.9633 22.7167,4.2433 23.0767,9.5623 L19.0767,9.5623 C18.7167,6.0823 16.0777,4.3633 11.8377,4.3633 C7.8787,4.3633 4.6387,6.0823 4.6387,9.2423 C4.6387,11.3623 6.1597,12.2813 8.6387,12.8023" id="Fill-1" fill=" #F2E8E0" mask="url(#mask-2)"></path>
            </g>
            <g id="Group-6" transform="translate(26.000000, 0.627048)">
                <mask id="mask-4" fill="white">
                    <use xlink:href="#path-3"></use>
                </mask>
                <g id="Clip-5"></g>
                <path d="M14.478,27.4791 C20.277,27.4791 24.316,23.0411 24.316,15.9211 C24.316,8.8021 20.277,4.4031 14.478,4.4031 C8.679,4.4031 4.64,8.8021 4.64,15.9211 C4.64,23.0411 8.679,27.4791 14.478,27.4791 M14.478,0.9231 C22.717,0.9231 28.476,6.9221 28.476,15.9211 C28.476,24.9191 22.717,30.9581 14.478,30.9581 C6.239,30.9581 0.48,24.9191 0.48,15.9211 C0.48,6.9221 6.239,0.9231 14.478,0.9231" id="Fill-4" fill=" #F2E8E0" mask="url(#mask-4)"></path>
            </g>
            <polygon id="Fill-7" fill=" #F2E8E0" points="62.2788 27.4264478 75.8768 27.4264478 75.8768 30.9864478 58.2798 30.9864478 58.2798 2.1914478 62.2788 2.1914478"></polygon>
            <path d="M90.9971,5.6305478 L90.8371,5.6305478 L85.9981,18.7875478 L95.9161,18.7875478 L90.9971,5.6305478 Z M84.6781,22.3475478 L81.5181,30.9855478 L77.2791,30.9855478 L88.3571,2.1915478 L93.5971,2.1915478 L104.8741,30.9855478 L100.5561,30.9855478 L97.2761,22.3475478 L84.6781,22.3475478 Z" id="Fill-9" fill=" #F2E8E0"></path>
            <path d="M119.3965,15.3483478 C122.8355,15.3483478 124.7955,13.3493478 124.7955,10.4693478 C124.7955,7.5893478 122.8355,5.5903478 119.3965,5.5903478 L112.0775,5.5903478 L112.0775,15.3483478 L119.3965,15.3483478 Z M128.1555,22.3873478 L128.7145,27.7863478 C128.8345,28.8273478 128.9155,29.9063478 129.2345,30.9863478 L125.1155,30.9863478 C124.7555,29.1463478 124.5955,26.3063478 124.2755,23.3073478 C123.9955,20.6673478 122.1565,18.7473478 119.5565,18.7473478 L112.0775,18.7473478 L112.0775,30.9863478 L108.0785,30.9863478 L108.0785,2.1913478 L120.1965,2.1913478 C125.1555,2.1913478 128.8755,5.6703478 128.8755,10.4693478 C128.8755,13.5483478 126.9555,15.9093478 124.1155,17.0283478 L124.1155,17.1883478 C126.3955,17.8273478 127.9555,19.8683478 128.1555,22.3873478 Z" id="Fill-11" fill=" #F2E8E0"></path>
            <path d="M272.0767,16.9889478 C268.1167,16.9889478 266.2367,18.9079478 266.2367,22.2669478 C266.2367,25.6279478 268.5157,27.5869478 272.0767,27.5869478 L279.0357,27.5869478 L279.0357,16.9889478 L272.0767,16.9889478 Z M262.2377,22.2669478 C262.2377,17.0689478 265.7577,13.5899478 271.3557,13.5899478 L279.0357,13.5899478 L279.0357,2.1909478 L283.0337,2.1909478 L283.0337,30.9859478 L271.3557,30.9859478 C266.1567,30.9859478 262.2377,27.4669478 262.2377,22.2669478 Z" id="Fill-13" fill=" #F2E8E0"></path>
            <path d="M246.0366,5.0709478 C240.2376,5.0709478 236.1976,9.5089478 236.1976,16.6289478 C236.1976,23.7479478 240.2376,28.1469478 246.0366,28.1469478 C251.8356,28.1469478 255.8756,23.7479478 255.8756,16.6289478 C255.8756,9.5089478 251.8356,5.0709478 246.0366,5.0709478 M246.0366,31.6269478 C237.7976,31.6269478 232.0396,25.6279478 232.0396,16.6289478 C232.0396,7.6309478 237.7976,1.5919478 246.0366,1.5919478 C254.2756,1.5919478 260.0336,7.6309478 260.0336,16.6289478 C260.0336,25.6279478 254.2756,31.6269478 246.0366,31.6269478" id="Fill-15" fill=" #F2E8E0"></path>
            <polygon id="Fill-17" fill=" #F2E8E0" points="227.1548 30.9859478 221.0748 7.4299478 220.9158 7.4299478 215.1558 30.9859478 210.3968 30.9859478 204.7978 7.4699478 204.6378 7.4699478 198.4788 30.9859478 194.3998 30.9859478 202.1978 2.1909478 206.9978 2.1909478 212.7168 25.5879478 212.8768 25.5879478 218.5548 2.1909478 223.5548 2.1909478 231.2328 30.9859478"></polygon>
            <polygon id="Fill-19" fill=" #F2E8E0" points="172.3979 27.4664478 186.9959 27.4664478 186.9959 19.1884478 172.9979 19.1884478 172.9979 15.6284478 186.9959 15.6284478 186.9959 5.7104478 172.1979 5.7104478 172.1979 2.1914478 190.9949 2.1914478 190.9949 30.9864478 172.3979 30.9864478"></polygon>
            <path d="M155.6763,17.8287478 C152.2373,17.8287478 150.2783,19.8277478 150.2783,22.7077478 C150.2783,25.5877478 152.2373,27.5867478 155.6763,27.5867478 L162.9953,27.5867478 L162.9953,17.8287478 L155.6763,17.8287478 Z M146.9183,10.7897478 L146.3583,5.3907478 C146.2383,4.3497478 146.1573,3.2707478 145.8383,2.1907478 L149.9573,2.1907478 C150.3183,4.0307478 150.4773,6.8707478 150.7973,9.8697478 C151.0773,12.5097478 152.9163,14.4297478 155.5163,14.4297478 L162.9953,14.4297478 L162.9953,2.1907478 L166.9943,2.1907478 L166.9943,30.9857478 L154.8763,30.9857478 C149.9173,30.9857478 146.1973,27.5067478 146.1973,22.7077478 C146.1973,19.6287478 148.1173,17.2677478 150.9573,16.1487478 L150.9573,15.9887478 C148.6773,15.3497478 147.1173,13.3087478 146.9183,10.7897478 Z" id="Fill-21" fill=" #F2E8E0"></path>
            <path d="M310.5962,16.1881478 C314.5552,16.1881478 316.4342,14.2691478 316.4342,10.9101478 C316.4342,7.5491478 314.1552,5.5901478 310.5962,5.5901478 L303.6372,5.5901478 L303.6372,16.1881478 L310.5962,16.1881478 Z M320.4342,10.9101478 C320.4342,16.1081478 316.9142,19.5871478 311.3152,19.5871478 L303.6372,19.5871478 L303.6372,30.9861478 L299.6372,30.9861478 L299.6372,2.1911478 L311.3152,2.1911478 C316.5142,2.1911478 320.4342,5.7101478 320.4342,10.9101478 Z" id="Fill-23" fill=" #F2E8E0"></path>
            <path d="M335.7563,15.3483478 C339.1953,15.3483478 341.1543,13.3493478 341.1543,10.4693478 C341.1543,7.5893478 339.1953,5.5903478 335.7563,5.5903478 L328.4363,5.5903478 L328.4363,15.3483478 L335.7563,15.3483478 Z M344.5143,22.3873478 L345.0743,27.7863478 C345.1943,28.8273478 345.2743,29.9063478 345.5943,30.9863478 L341.4753,30.9863478 C341.1133,29.1463478 340.9553,26.3063478 340.6353,23.3073478 C340.3543,20.6673478 338.5163,18.7473478 335.9163,18.7473478 L328.4363,18.7473478 L328.4363,30.9863478 L324.4383,30.9863478 L324.4383,2.1913478 L336.5553,2.1913478 C341.5143,2.1913478 345.2353,5.6703478 345.2353,10.4693478 C345.2353,13.5483478 343.3153,15.9093478 340.4753,17.0283478 L340.4753,17.1883478 C342.7543,17.8273478 344.3153,19.8683478 344.5143,22.3873478 Z" id="Fill-25" fill=" #F2E8E0"></path>
            <polygon id="Fill-27" fill=" #F2E8E0" points="369.5942 5.7106478 354.9962 5.7106478 354.9962 13.9886478 368.9942 13.9886478 368.9942 17.5486478 354.9962 17.5486478 354.9962 27.4666478 369.7932 27.4666478 369.7932 30.9856478 350.9962 30.9856478 350.9962 2.1906478 369.5942 2.1906478"></polygon>
            <path d="M381.6353,13.4293478 C383.6763,13.8683478 386.1153,14.2693478 388.5553,14.7483478 C392.9533,15.6283478 396.8733,17.4683478 396.8733,22.7073478 C396.8733,28.2263478 392.0333,31.5853478 385.2353,31.5853478 C377.6373,31.5853478 373.1973,28.4263478 372.9963,21.3873478 L376.9553,21.3873478 C377.1153,26.2673478 380.1153,28.1463478 385.2353,28.1463478 C389.7153,28.1463478 392.8733,26.1073478 392.8733,22.7073478 C392.8733,20.1483478 390.7543,19.1883478 387.9143,18.6273478 C385.3563,18.1083478 382.3953,17.5483478 379.6353,17.0283478 C376.3563,16.3883478 373.6763,14.1493478 373.6763,9.8693478 C373.6763,4.5103478 378.6763,1.5903478 384.8343,1.5903478 C391.6333,1.5903478 395.7133,4.8703478 396.0733,10.1893478 L392.0743,10.1893478 C391.7133,6.7093478 389.0743,4.9903478 384.8343,4.9903478 C380.8753,4.9903478 377.6373,6.7093478 377.6373,9.8693478 C377.6373,11.9893478 379.1563,12.9083478 381.6353,13.4293478" id="Fill-29" fill=" #F2E8E0"></path>
            <path d="M408.1157,13.4293478 C410.1547,13.8683478 412.5947,14.2693478 415.0337,14.7483478 C419.4337,15.6283478 423.3517,17.4683478 423.3517,22.7073478 C423.3517,28.2263478 418.5137,31.5853478 411.7157,31.5853478 C404.1157,31.5853478 399.6767,28.4263478 399.4767,21.3873478 L403.4357,21.3873478 C403.5957,26.2673478 406.5957,28.1463478 411.7157,28.1463478 C416.1937,28.1463478 419.3537,26.1073478 419.3537,22.7073478 C419.3537,20.1483478 417.2327,19.1883478 414.3947,18.6273478 C411.8347,18.1083478 408.8757,17.5483478 406.1157,17.0283478 C402.8367,16.3883478 400.1567,14.1493478 400.1567,9.8693478 C400.1567,4.5103478 405.1547,1.5903478 411.3147,1.5903478 C418.1137,1.5903478 422.1917,4.8703478 422.5537,10.1893478 L418.5537,10.1893478 C418.1937,6.7093478 415.5527,4.9903478 411.3147,4.9903478 C407.3557,4.9903478 404.1157,6.7093478 404.1157,9.8693478 C404.1157,11.9893478 405.6357,12.9083478 408.1157,13.4293478" id="Fill-31" fill=" #F2E8E0"></path>
        </g>
    </g>
</svg>