<svg id="Layer_1" data-name="Layer 1" xmlns="http://www.w3.org/2000/svg" viewBox="0 0 300.18 30.07"><defs><style>.cls-1{fill:#fff;}</style></defs><title>solarpower</title><path class="cls-1" d="M8.64,11.88c2,.44,4.48.84,6.92,1.32,4.4.88,8.32,2.72,8.32,8C23.88,26.68,19,30,12.24,30,4.64,30,.2,26.88,0,19.84H4c.16,4.88,3.16,6.76,8.28,6.76,4.48,0,7.64-2,7.64-5.44,0-2.56-2.12-3.52-5-4.08-2.56-.52-5.52-1.08-8.28-1.6a6.86,6.86,0,0,1-6-7.16C.68,3,5.68,0,11.84,0c6.8,0,10.88,3.28,11.24,8.6h-4c-.36-3.48-3-5.2-7.24-5.2-4,0-7.2,1.72-7.2,4.88C4.64,10.44,6.16,11.36,8.64,11.88Z"/><path class="cls-1" d="M40.8,0c8.24,0,14,6,14,15S49,30,40.8,30s-14-6-14-15S32.56,0,40.8,0Zm0,26.56c5.8,0,9.84-4.44,9.84-11.56S46.6,3.48,40.8,3.48,31,7.88,31,15,35,26.56,40.8,26.56Z"/><path class="cls-1" d="M63.28,25.88h13.6v3.56H59.28V.64h4Z"/><path class="cls-1" d="M86.08,20.8l-3.16,8.64H78.68L89.76.64H95l11.28,28.8H102L98.68,20.8ZM92.4,4.08h-.16L87.4,17.24h9.92Z"/><path class="cls-1" d="M129.83,20.84l.56,5.4a18.25,18.25,0,0,0,.52,3.2H126.8c-.36-1.84-.52-4.68-.84-7.68a4.75,4.75,0,0,0-4.72-4.56h-7.48V29.44h-4V.64h12.12c5,0,8.68,3.48,8.68,8.28a7,7,0,0,1-4.76,6.56v.16A5.69,5.69,0,0,1,129.83,20.84Zm-8.76-7c3.44,0,5.4-2,5.4-4.88s-2-4.88-5.4-4.88h-7.32V13.8Z"/><path class="cls-1" d="M279.38,20.72c0-5.2,3.52-8.68,9.12-8.68h7.68V.64h4V29.43H288.5C283.3,29.43,279.38,25.92,279.38,20.72Zm9.84-5.28c-4,0-5.84,1.92-5.84,5.28S285.66,26,289.22,26h7V15.44Z"/><path class="cls-1" d="M262.82,30.07c-8.24,0-14-6-14-15s5.76-15,14-15,14,6,14,15S271.06,30.07,262.82,30.07Zm0-26.56C257,3.52,253,8,253,15.08s4,11.52,9.84,11.52,9.84-4.4,9.84-11.52S268.62,3.52,262.82,3.52Z"/><path class="cls-1" d="M243.78,29.43,237.7,5.88h-.16l-5.76,23.56H227l-5.6-23.52h-.16L215.1,29.43H211L218.82.64h4.8L229.34,24h.16L235.18.64h5l7.68,28.79Z"/><path class="cls-1" d="M188.62,25.92h14.6V17.64h-14V14.08h14V4.16h-14.8V.64h18.8V29.43h-18.6Z"/><path class="cls-1" d="M163.18,9.24l-.56-5.4a18.24,18.24,0,0,0-.52-3.2h4.12c.36,1.84.52,4.68.84,7.68a4.75,4.75,0,0,0,4.72,4.56h7.48V.64h4V29.43H171.14c-5,0-8.68-3.48-8.68-8.28a7,7,0,0,1,4.76-6.56v-.16A5.69,5.69,0,0,1,163.18,9.24Zm8.76,7c-3.44,0-5.4,2-5.4,4.88s2,4.88,5.4,4.88h7.32V16.28Z"/><circle class="cls-1" cx="146.51" cy="15.02" r="4"/></svg>